<svg version="1.1" id="Layer_1" xmlns="http://www.w3.org/2000/svg" xmlns:xlink="http://www.w3.org/1999/xlink" x="0px" y="0px" viewBox="-755.2 477 688.4 128" style="enable-background:new -755.2 477 688.4 128;" xml:space="preserve">
 <style type="text/css">
  .st0{fill:#126BC5;}
 </style>
 <g>
  <g>
   <path class="st0" d="M-149.1,477c-2.7,0-4.3,2.2-4.3,4.3V513h83.9l-38.2-36C-107.7,477-149.1,477-149.1,477z">
   </path>
   <path class="st0" d="M-66.8,522.7c0-2.7-2.2-4.3-4.3-4.3h-31.7v83.9l36-38.2C-66.8,564.1-66.8,522.7-66.8,522.7z">
   </path>
   <path class="st0" d="M-112.5,605c2.7,0,4.3-2.2,4.3-4.3V569h-83.9l38.2,36C-153.9,605-112.5,605-112.5,605z">
   </path>
   <path class="st0" d="M-194.8,559.3c0,2.7,2.2,4.3,4.3,4.3h31.7v-83.4l-36,38.2L-194.8,559.3z">
   </path>
  </g>
  <polygon points="-578.3,492.1 -578.3,530.8 -632,530.8 -632,492.1 -651.4,492.1 -651.4,589.9 -632,589.9 -632,548 -578.3,548 
		-578.3,589.9 -558.4,589.9 -558.4,492.1 	">
  </polygon>
  <polygon points="-317.4,492.1 -317.4,589.4 -231.4,589.4 -242.1,572.7 -297.5,572.7 -297.5,548 -244.3,548 -244.3,531.3 
		-297.5,531.3 -297.5,509.3 -242.7,509.3 -231.9,492.1 	">
  </polygon>
  <g>
   <path d="M-724.5,492.1c-20.4,0-30.7,12.4-30.7,30.7v36.6c0,21,13.4,30.7,30.7,30.7h61.3l-11.3-18.3h-46.3c-9.7,0-14-3.8-14-14.5
			v-32.8c0-10.8,3.8-15.1,14.5-15.1h46.3l10.8-17.2L-724.5,492.1L-724.5,492.1z">
   </path>
   <path d="M-403.5,492.1c-11.8,0-23.7,7-23.7,25.3v4.8c0,18.8,11.8,26.4,23.1,26.4h40.9c4.3,0,7.5,0.5,7.5,8.1v8.1
			c0,6.5-3.2,8.1-8.1,8.1h-53.8l-10.8,17.2h66.2c16.1,0,26.9-8.1,26.9-26.4v-6.5c0-17.7-10.2-25.8-25.8-25.8h-39.3
			c-4.3,0-7.5-1.1-7.5-7.5v-7.5c0-5.4,2.2-7.5,7-7.5h51.1l10.8-16.7H-403.5z">
   </path>
  </g>
  <path d="M-501.4,492.1l-46.3,97.3h22.1l9.1-19.9h50l9.1,19.9h22.1l-46.8-97.3H-501.4z M-492.2,512.5l17.7,40.3H-510L-492.2,512.5z">
  </path>
 </g>
</svg>