<svg version="1.1" id="Layer_1" xmlns="http://www.w3.org/2000/svg" xmlns:xlink="http://www.w3.org/1999/xlink" x="0px" y="0px" viewBox="-425.5 64 164.9 164.9" style="enable-background:new -425.5 64 164.9 164.9;" xml:space="preserve">
 <style type="text/css">
  .st0{fill:#00A0DF;}
	.st1{fill:#FFFFFF;}
 </style>
 <g id="XMLID_50_">
  <path id="XMLID_22_" class="st0" d="M-425.5,64h164.9v164.9h-164.9V64z">
  </path>
  <g id="XMLID_51_">
   <g id="XMLID_101_">
    <path id="XMLID_21_" class="st1" d="M-282.1,138.6c0-2.4-1.5-4.1-2.7-5.9c-1.2-1.2-2.1-2.4-2.1-3.8c0-1.8,1.2-2.9,2.7-2.9
				c0.9,0,1.5,0.3,2.1,0.6c0.6,0.3,1.5,0.6,2.1,0.6c1.2,0,2.1-1.2,2.1-2.1c0-1.2-1.2-2.4-3.2-2.4c-4.7,0-8.8,5.3-8.8,9.4
				c0,2.4,1.5,4.1,2.7,5.6c0.9,1.2,1.8,2.4,1.8,3.5c0,1.8-1.8,2.9-3.2,2.9c-1.8,0-2.7-0.9-3.8-1.8c-0.6-0.6-1.2-1.2-1.8-1.2
				c-0.9,0-1.2,1.8-1.2,2.7c0,1.2,2.1,2.9,4.7,2.9C-286.9,146.3-282.1,142.8-282.1,138.6">
    </path>
   </g>
   <g id="XMLID_98_">
    <path id="XMLID_99_" class="st1" d="M-382.7,109.7C-383,109.7-383,109.7-382.7,109.7l-0.3,1.2v0.3h1.5c1.2,0.3,1.5,0.3,1.5,0.9
				c0,0.9-1.2,3.8-2.7,8l-1.2,3.8c-1.2,3.2-2.9,8-4.4,11.8c-1.8,4.7-3.2,8.6-3.2,9.1s0.3,0.9,1.8,0.9c1.5,0,2.1-0.3,2.4-0.9
				c2.7-8.6,9.7-18.3,13.3-18.3c1.2,0,1.5,0.3,1.5,1.5c0,1.8-1.5,5.3-3.2,8.8c-1.5,2.9-2.7,5.9-2.7,7.4c0,1.2,0.6,1.8,1.8,1.8
				c3.5,0,6.5-3.2,8.6-5.9l0.3-0.3l-0.9-0.9h-0.3c-1.2,1.2-3.2,3.2-3.8,3.2h-0.3v-0.6c0-0.3,0.3-1.2,0.9-2.4
				c1.5-3.2,3.8-8.8,3.8-12.1c0-2.7-1.2-4.1-3.5-4.1c-4.4,0-8,5-9.7,7.7c-0.3,0.6-0.9,1.2-0.9,1.2s0.3-0.6,0.6-1.8
				c0.6-1.2,1.2-2.9,2.1-5.3c3.2-8.8,4.7-13.3,4.7-13.9s-0.6-0.6-0.9-0.6h-6.5V109.7z">
    </path>
   </g>
   <g id="XMLID_95_">
    <path id="XMLID_96_" class="st1" d="M-392.8,141C-392.5,140.7-392.5,140.7-392.8,141c0-0.3-0.9-0.9-0.9-0.9
				c-1.5,1.2-4.1,3.5-6.5,3.5c-0.9,0-1.8-0.3-2.4-0.9c-0.9-0.6-1.2-1.8-1.2-3.2c-0.3-3.5,2.9-9.1,5.9-12.4c1.8-1.8,3.2-2.7,4.1-2.7
				c1.2,0,2.1,0.9,2.9,1.8c0.6,0.9,1.2,1.5,2.1,1.5c0.3,0,0.9-0.3,0.9-0.6c0.3-0.3,0.6-0.9,0.6-1.2c0-1.5-1.5-3.5-4.7-3.8
				c-3.5,0-8.3,2.1-11.8,5.6c-3.2,3.2-5,7.4-4.7,11.2c0,3.2,1.8,6.8,6.5,6.8C-397.2,146.3-393.3,142.2-392.8,141z">
    </path>
   </g>
   <g id="XMLID_92_">
    <path id="XMLID_93_" class="st1" d="M-333.2,132.7c0,0.3-0.3,0.6-0.3,0.6V133c0-0.3,0.3-1.2,0.6-2.4c0.6-2.4,1.2-5.3,1.2-6.2
				c0-1.2-0.6-1.8-1.8-1.8c-2.4,0-6.2,4.1-7.4,6.2l0.6,0.9l0.3-0.3l0.3-0.3c0.9-1.2,2.7-3.2,3.5-3.2c0.6,0,0.9,0.6,0.9,1.5
				c0,2.1-2.4,8.6-3.8,13c-0.9,2.4-1.5,4.1-1.5,4.4c0,0.6,0.3,0.6,0.6,0.6h2.1c0.3,0,0.6-0.3,0.9-0.9c0,0,0.9-2.4,1.5-3.5
				c4.1-8.3,6.2-12.4,8-14.2c1.2-1.2,2.1-1.5,2.7-1.5c0.6,0,0.6,0.3,0.9,0.6s0.6,0.9,1.2,0.9c0.3,0,0.9,0,1.2-0.3
				c0.6-0.6,0.9-1.2,0.9-2.1c0-1.5-1.2-2.1-2.1-2.1C-327,122.7-329.6,125.4-333.2,132.7z">
    </path>
   </g>
   <path id="XMLID_87_" class="st1" d="M-345.9,122.1c-0.3,0-0.6,0.3-0.6,0.6c-0.3,0.3-0.3,0.6-0.9,0.6c-0.3,0-0.6,0-1.2-0.3
			c-0.6,0-1.2-0.3-2.1-0.3c-10.3,0-15.6,13.9-15.6,18.6c0,3.2,1.8,4.7,3.5,4.7c2.1,0,5-0.6,8.8-6.5l0.9-1.5v0.3l-0.3,0.6
			c-0.6,0.9-1.5,2.9-1.5,4.7c0,0.9,0.3,1.5,0.6,1.8c0.3,0.3,0.9,0.6,1.5,0.6c3.5,0,6.5-4.7,7.7-6.5l-0.9-0.9h-0.3l-0.9,0.9
			c-1.2,1.2-2.4,2.9-3.2,2.9h-0.3v-0.6c0-1.2,2.4-6.8,3.8-11.2c1.2-3.2,2.4-6.2,2.4-6.8c0,0,0-0.6-0.3-0.6l-1.5-0.9
			C-345.6,122.1-345.9,122.1-345.9,122.1z M-362.1,140.4c0-6.8,5.3-15.9,10.6-15.9c1.8,0,2.7,0.9,2.7,2.7c0,2.7-7.1,15.3-11.8,15.3
			C-361.5,142.8-362.1,142.5-362.1,140.4z">
   </path>
   <path id="XMLID_82_" class="st1" d="M-312.8,139.8c0,3.8,2.4,6.5,5.9,6.5c4.1,0,8.6-4.1,9.7-5.3v-0.3l-0.6-0.9h-0.3l-0.6,0.3
			c-1.5,1.2-3.8,2.9-5.9,2.9c-2.4,0-3.8-1.5-3.8-3.8c0-2.9,1.5-5,2.4-6.8v-0.3h2.4c3.8,0,10.9-1.8,10.9-6.2c0-1.8-1.8-3.8-4.7-3.8
			C-303.4,122.7-312.8,131.6-312.8,139.8z M-297.8,124.2c1.2,0,2.1,0.9,2.1,2.1c0,2.9-3.2,4.4-8.8,4.4
			C-303.7,128.6-300.4,124.2-297.8,124.2z">
   </path>
   <g id="XMLID_78_">
    <path id="XMLID_79_" class="st1" d="M-314.6,140.1C-314.6,140.1-314.6,139.8-314.6,140.1c0-0.3-0.9-1.2-0.9-1.2l-0.3,0.3
				c-2.1,2.1-2.9,3.5-4.1,3.5h-0.3c0,0-0.3-0.3-0.3-0.6c0-1.2,2.1-7.1,6.2-17.7l2.9-7.7c1.5-3.8,2.4-5.9,2.4-6.2v-0.3
				c0-0.3-0.3-0.3-0.9-0.3h-6.8c0,0-0.3,0-0.3,0.3v1.5h1.5c0.9,0.3,1.5,0.6,1.5,1.2c0,0.9-4.4,11.8-4.4,11.8
				c-2.4,5.9-6.5,16.2-6.5,18.6c0,1.2,0.3,2.1,0.6,2.4c0.6,0.6,1.2,0.9,2.1,0.9c2.7,0,5.6-3.5,7.4-5.9
				C-314.9,140.7-314.6,140.1-314.6,140.1z">
    </path>
   </g>
   <g id="XMLID_75_">
    <path id="XMLID_76_" class="st1" d="M-408.1,160.8c0,3.2,2.7,5,5,6.2l1.2,0.6c2.4,1.2,3.5,2.7,3.5,4.4c0,2.1-1.5,3.8-3.5,3.8
				c-3.2,0-5-3.2-5.9-5.3l-1.2,0.3c0.3,2.1,0.9,4.4,0.9,5.3h0.6l1.5,0.6c0.9,0.3,2.1,0.6,3.2,0.6c4.4,0,7.7-2.7,7.7-6.8
				c0-3.8-2.9-5.6-5-6.5l-0.9-0.3c-2.7-1.5-3.8-2.7-3.8-4.4s1.2-3.5,3.2-3.5c2.7,0,3.8,2.1,4.4,4.1l1.2-0.3
				c-0.3-1.8-0.6-3.2-0.6-4.4l-0.9-0.3l-0.6-0.3c-0.9-0.3-2.1-0.6-2.9-0.6C-405.1,154.3-408.1,156.9-408.1,160.8z">
    </path>
   </g>
   <g id="XMLID_72_">
    <path id="XMLID_73_" class="st1" d="M-392.5,166.1c0,5.6,3.8,10.9,12.4,10.9c2.1,0,5-0.6,6.2-0.9c0.6-1.5,1.5-4.1,1.8-5.6
				l-1.2-0.3c-1.8,3.5-3.2,5.3-7.1,5.3c-4.7,0-8-4.1-8-10.3c0-4.4,2.1-9.4,8-9.4c3.5,0,5.3,1.5,6.2,5h1.2l-0.3-1.5l-0.6-3.8h-0.6
				c-1.2-0.3-2.9-0.6-5.3-0.6C-387.2,154.3-392.5,159-392.5,166.1z">
    </path>
   </g>
   <g id="XMLID_69_">
    <path id="XMLID_70_" class="st1" d="M-347.3,154.9h-9.4v1.2c2.4,0.3,2.7,0.3,2.7,4.1v4.4h-10v-4.4c0-3.5,0.3-3.8,2.7-4.1v-1.2
				h-9.7v1.2c2.9,0.3,2.9,0.6,2.9,4.1V172c0,3.5-0.3,3.8-2.9,4.1v1.2h9.7v-1.2c-2.4-0.3-2.9-0.3-2.9-4.1v-5.6h10v5.6
				c0,3.5-0.3,3.8-2.9,4.1v1.2h9.7v-1.2c-2.7-0.3-2.9-0.3-2.9-4.1v-11.8c0-3.5,0.3-3.8,2.9-4.1C-347.6,156-347.3,154.9-347.3,154.9z
				">
    </path>
   </g>
   <g id="XMLID_64_">
    <path id="XMLID_65_" class="st1" d="M-314,154.9h-7.7v1.2h1.2c0.6,0,0.9,0.3,1.2,0.3c0,0.3,0.3,0.3,0.3,0.6s0,0.9-0.3,1.5
				c0,0.3-1.8,7.7-3.2,12.4c-0.3-0.6-5.9-15.6-5.9-15.6h-1.5c0,0-5,15.6-5,15.9c-0.3-0.6-3.8-13-3.8-13c0-0.6-0.3-0.9-0.3-1.2v-0.6
				c0.3-0.3,0.6-0.3,1.2-0.3h1.2v-0.9h-9.1v1.2c1.8,0.3,2.4,0.3,3.2,3.2l5.6,17.7h1.5c0,0,5-15.3,5.3-15.6
				c0.3,0.6,5.6,15.6,5.6,15.6h1.5c2.9-10.3,5.6-17.4,5.6-17.7c1.2-2.9,1.5-3.2,3.5-3.2C-314,156.3-314,154.9-314,154.9z">
    </path>
   </g>
   <path id="XMLID_59_" class="st1" d="M-308.1,160.2c0,0,2.4,7.1,2.7,7.1h-5C-310.7,167.2-308.1,160.2-308.1,160.2z M-304,160.8
			l-2.4-6.2l-1.5,0.3l-6.8,17.4c-1.2,2.9-1.5,3.2-3.5,3.2v1.2h7.7v-1.2h-0.9c-0.6,0-1.2-0.3-1.2-0.6v-0.6c0-0.3,0-0.6,0.3-1.2
			l0.3-0.6c0.3-1.2,0.9-2.9,1.2-3.5h6.2c0.6,1.8,1.5,3.8,1.8,4.7c0,0.3,0.3,0.6,0.3,0.9v0.3c0,0.3-0.3,0.3-0.9,0.3l-0.9,0.3v0.9h8.8
			v-1.2c-1.8-0.3-2.4-0.3-3.5-3.2L-304,160.8L-304,160.8z">
   </path>
   <path id="XMLID_52_" class="st1" d="M-288.3,157.8c0-0.9,0-1.5,0.3-1.5h1.5c0.9,0,4.1,0.3,4.1,4.1c0,2.7-1.8,4.1-4.7,4.1h-1.2
			C-288.3,164.6-288.3,157.8-288.3,157.8z M-294.5,154.9v1.2c2.4,0.3,2.7,0.3,2.7,4.1V172c0,3.5-0.3,3.8-2.9,4.1v1.2h8.3
			c2.7,0,5-0.6,6.5-1.5c2.1-1.2,2.9-2.9,2.9-5c0-2.9-2.1-5-5.9-5.6c1.8-0.3,4.7-1.8,4.7-4.7c0-1.8-0.6-2.9-1.8-3.8
			c-1.2-0.9-2.7-1.2-5.3-1.2h-9.1V154.9z M-287.1,165.5c3.8,0,5.9,1.8,5.9,5c0,3.2-2.4,4.7-4.4,4.7c-0.9,0-1.5,0-1.8-0.3
			c-0.6-0.6-0.6-1.5-0.6-3.2v-5.9C-288,165.5-287.1,165.5-287.1,165.5z">
   </path>
  </g>
 </g>
</svg>