<svg version="1.1" id="Layer_1" xmlns:x="ns_extend;" xmlns:i="ns_ai;" xmlns:graph="ns_graphs;" xmlns="http://www.w3.org/2000/svg" xmlns:xlink="http://www.w3.org/1999/xlink" x="0px" y="0px" viewBox="0 0 417.23 42" style="enable-background:new 0 0 417.23 42;" xml:space="preserve">
 <style type="text/css">
  .st0{fill:#D71E28;}
 </style>
 <metadata>
  <sfw xmlns="ns_sfw;">
   <slices>
   </slices>
   <sliceSourceBounds bottomLeftOrigin="true" height="42" width="417.23" x="-11.82" y="-134.08">
   </sliceSourceBounds>
  </sfw>
 </metadata>
 <g id="BIM_x2F_logo_x2F_large-211x22">
  <g id="Wells_Fargo">
   <path id="Shape" class="st0" d="M89.35,27.34h4.16v13.47H59.43v-4.95h4.75V6.14h-7.73l-9.91,34.67h-7.92l-8.12-28.73l-8.32,28.73
			h-7.92L4.36,6.14H0V1.39h18.42v4.95h-5.35l6.74,23.77l7.92-28.73h8.12l8.12,28.92l6.54-23.97h-5.55V1.39h47.94v12.88h-4.16
			l-0.4-1.58c-1.19-4.75-2.58-6.34-6.34-6.34h-9.31v11.89H84c0.4,0.79,0.59,1.78,0.59,2.77s-0.2,1.98-0.59,2.77H72.71v12.28h9.71
			c3.76,0,5.35-1.58,6.54-6.54L89.35,27.34z M125.21,29.32c-1.19,4.95-2.77,6.54-6.54,6.54h-7.92V6.14h5.35V1.39H97.47v4.95h4.75
			v29.72h-4.75v4.95h32.09V27.54h-4.16L125.21,29.32z M160.87,29.32c-1.19,4.95-2.77,6.54-6.54,6.54h-7.92V6.14h5.35V1.39h-18.62
			v4.95h4.75v29.72h-4.75v4.95h32.09V27.54h-4.16L160.87,29.32z M190.58,17.63l-7.13-1.58c-4.16-0.99-5.94-2.58-5.94-5.35
			c0-3.37,2.58-5.35,7.92-5.35c5.15,0,8.32,1.78,9.51,6.34l0.59,1.98h4.16V3.76c-4.36-2.38-9.31-3.57-14.46-3.57
			c-9.71,0-15.85,4.56-15.85,12.08c0,5.75,3.57,10.1,10.5,11.49l7.13,1.58c4.56,0.99,6.34,2.77,6.34,5.75
			c0,3.76-2.77,5.75-8.32,5.75c-6.34,0-9.51-2.58-10.9-7.33l-0.79-2.38h-4.16v11.09c5.15,2.58,10.9,3.76,16.64,3.76
			c9.51,0,15.65-4.75,15.65-12.08C201.48,23.58,197.72,19.42,190.58,17.63z M245.26,6.14c3.76,0,5.15,1.58,6.34,6.34l0.4,1.58h4.16
			V1.39h-34.27v4.95h4.75v29.72h-4.75v4.95h18.82v-4.95h-5.75V24.57h11.69c0.4-0.79,0.59-1.78,0.59-2.77s-0.2-1.78-0.59-2.77h-11.69
			V6.14H245.26z M331.44,36.45c0.59,1.39,0.59,3.17,0,4.56c-1.39,0.2-2.97,0.2-4.36,0.2c-5.55,0-8.12-2.18-8.72-7.53l-0.2-1.98
			c-0.59-5.75-2.58-7.92-8.72-7.92h-3.17v12.08h5.35v4.95h-35.66v-4.95h4.56l-2.58-7.13h-14.66l-2.58,7.13h4.75v4.95h-15.06v-4.95
			h3.96l13.87-34.67h7.53l14.07,34.67h7.73V6.14h-4.75V1.39h22.78c8.12,0,13.27,3.96,13.27,10.5c0,6.34-5.35,9.71-10.3,10.1v0.2
			c5.15,0.4,7.33,3.37,7.73,7.73l0.2,2.18c0.4,3.37,0.99,4.75,3.57,4.75C330.65,36.65,331.05,36.45,331.44,36.45L331.44,36.45z
			 M276.17,24.17l-5.55-15.06l-5.55,15.06H276.17z M320.55,12.48c0-4.16-2.58-6.34-7.73-6.34h-6.74v12.88h6.74
			C317.77,19.02,320.55,16.64,320.55,12.48L320.55,12.48z M354.23,22.78c0,0.99,0.2,1.98,0.59,2.77h6.74v10.1
			c-2.18,0.79-4.36,1.39-6.74,1.39c-8.12,0-12.48-5.75-12.48-15.85s4.16-15.85,11.89-15.85c4.56-0.2,8.52,2.58,9.91,6.93l0.59,1.58
			h4.16V3.57C364.33,1.19,359.18,0,353.83,0c-12.48,0-20.8,8.32-20.8,21c0,12.88,8.12,21,20.8,21c5.55-0.2,10.9-1.58,15.85-4.16
			V20.21h-15.06C354.42,21,354.23,21.99,354.23,22.78L354.23,22.78z M417.23,21c0,11.69-9.51,21-21,21c-11.69,0-21-9.31-21-21
			s9.51-21,21-21C407.92,0,417.23,9.51,417.23,21z M407.92,21c0-10.1-4.16-15.85-11.69-15.85c-7.53,0-11.69,5.75-11.69,15.85
			s4.16,15.85,11.69,15.85C403.75,36.85,407.92,31.1,407.92,21L407.92,21z">
   </path>
  </g>
 </g>
</svg>